<svg version="1.1" id="Layer_1" xmlns="http://www.w3.org/2000/svg" xmlns:xlink="http://www.w3.org/1999/xlink" x="0px" y="0px"
	 width="100%" viewBox="0 0 406 246" enable-background="new 0 0 406 246" xml:space="preserve">

<path fill="#FDFBFC" opacity="1.000000" stroke="none" 
	d="
M94.531342,0.999999 
	C95.344719,1.986386 95.500244,3.705012 96.062286,3.850226 
	C105.772079,6.358907 108.799957,14.432679 108.849121,23.657787 
	C109.158997,81.802162 109.006104,139.949020 109.006096,198.095047 
	C109.006096,205.925598 108.741348,213.767365 109.072113,221.583923 
	C109.499832,231.691620 106.088280,239.512924 97.042542,244.553696 
	C96.367241,244.930008 95.959999,245.787369 95.714081,246.710541 
	C68.312439,247.000000 40.624878,247.000000 12.753738,246.714478 
	C9.227427,242.979492 5.901570,239.513184 2.509779,236.112640 
	C2.240037,235.842178 1.513988,236.026840 1.000000,236.000000 
	C1.000000,161.645767 1.000000,87.291542 1.309333,12.759632 
	C5.911281,8.963282 10.204823,5.345699 14.473051,1.698493 
	C14.496904,1.678110 14.165504,1.241982 14.000000,1.000000 
	C40.687561,1.000000 67.375122,1.000000 94.531342,0.999999 
M99.398376,138.310852 
	C88.853180,148.560211 75.702370,145.761627 69.756508,131.215302 
	C67.447739,120.402184 72.932419,113.948532 80.986473,110.272438 
	C76.937950,97.295265 73.041115,84.804306 69.162827,72.372795 
	C60.396019,75.386421 60.103683,84.258423 57.166306,91.387772 
	C56.947205,91.919563 57.576385,92.858192 57.919609,93.554245 
	C59.281921,96.316963 61.250149,98.918556 61.974545,101.833191 
	C64.464989,111.853569 66.525833,121.980721 68.698410,132.952576 
	C69.908981,140.947662 69.776329,149.095779 73.854759,156.645340 
	C76.714378,161.938766 78.447113,167.950439 79.972702,173.825806 
	C81.665321,180.344452 81.583931,187.280045 85.909996,193.112442 
	C87.035622,194.630035 86.447655,197.499939 86.454109,199.749283 
	C86.467285,204.337234 85.863396,208.985458 86.419640,213.497177 
	C86.998611,218.193237 88.718903,222.740509 89.804520,227.384537 
	C90.841537,231.820694 91.548721,236.265884 87.284058,239.666580 
	C93.930481,239.880035 100.671738,233.341385 101.955948,225.364456 
	C102.218864,223.731323 102.250122,222.047165 102.246078,220.386856 
	C102.180031,193.258102 102.091133,166.129410 102.180954,138.325943 
	C102.115845,137.436951 102.050743,136.547974 101.901825,134.514603 
	C100.899529,136.360214 100.451836,137.184601 99.398376,138.310852 
M102.219063,114.083008 
	C102.232262,109.423584 102.256317,104.764168 102.256828,100.104744 
	C102.259476,75.808060 102.297401,51.511272 102.235367,27.214745 
	C102.209099,16.924484 96.152649,8.603700 86.856201,7.388000 
	C80.284821,6.528660 73.510445,7.221660 66.426918,7.221660 
	C74.821609,14.722963 75.277313,23.930347 68.267464,32.377285 
	C65.981697,35.131664 64.137901,38.252831 62.041973,41.278400 
	C65.806129,44.153175 69.314095,47.134789 73.121712,49.665569 
	C78.161125,53.015079 81.208763,57.558144 82.061760,63.440411 
	C82.774399,68.354683 82.506508,73.462471 83.649712,78.251358 
	C85.526642,86.113861 89.274002,93.660156 90.208298,101.578644 
	C91.046417,108.681984 94.771980,112.244659 100.094749,116.159088 
	C100.579613,116.953156 101.064468,117.747223 102.004799,119.287224 
	C102.004799,117.218079 102.004799,116.108719 102.219063,114.083008 
M49.699871,27.951517 
	C48.560410,19.956959 51.939182,13.376082 56.237900,6.893197 
	C47.243889,6.893197 38.256905,6.887548 29.269930,6.894463 
	C14.146417,6.906099 6.862931,14.131089 6.860316,29.178095 
	C6.851023,82.658493 6.854675,136.138901 6.858600,189.619293 
	C6.859395,200.448624 6.773168,211.279526 6.927943,222.106827 
	C7.069910,232.038025 14.540414,240.703674 24.079487,240.902908 
	C43.186859,241.301987 62.308422,241.021408 80.716736,241.021408 
	C80.273956,237.695694 79.111244,234.420471 79.565430,231.387360 
	C81.157280,220.756714 80.244247,210.757111 74.367722,201.468964 
	C73.656998,200.345657 74.006729,198.603256 73.500191,197.288284 
	C72.391029,194.408951 71.835670,190.524368 69.673798,188.969208 
	C54.010120,177.701553 41.317333,163.866257 31.416370,147.347626 
	C29.504431,144.157776 28.753958,139.484512 23.424152,139.651932 
	C23.031660,139.664276 22.480402,138.784225 22.220650,138.219009 
	C19.515036,132.331604 16.403259,126.579872 14.291040,120.483231 
	C11.442085,112.260124 11.945704,104.157318 17.572714,96.907982 
	C18.071636,96.265213 17.980516,95.164459 18.169056,94.249161 
	C8.176363,93.099716 5.999902,89.913704 9.708000,80.397644 
	C13.684895,70.191788 18.323980,60.235256 22.909801,50.278488 
	C25.903681,43.778149 30.719088,40.233700 38.400490,39.654778 
	C49.874580,38.790016 49.836365,38.282974 49.699871,27.951517 
z"/>
<path fill="#1D428B" opacity="1.000000" stroke="none" 
	d="
M386.015869,93.017181 
	C385.638245,90.096062 385.260651,87.174934 384.883026,84.253815 
	C384.331543,84.293007 383.780029,84.332191 383.228546,84.371384 
	C383.228546,96.022346 383.228546,107.673302 383.228546,119.653488 
	C377.665009,119.653488 372.752991,119.653488 367.418304,119.653488 
	C367.418304,82.023842 367.418304,44.344078 367.418304,5.919081 
	C381.259888,6.912147 396.432129,2.200243 406.641846,17.083923 
	C407.000000,34.687561 407.000000,52.375122 406.644775,70.446312 
	C403.664062,74.097160 401.038544,77.364380 398.411255,80.632050 
	C402.655609,85.243332 403.527130,90.976044 404.075317,96.909935 
	C404.265411,98.967697 405.348938,100.942917 406.015289,103.326279 
	C406.337463,104.797813 406.668732,105.898903 407.000000,107.000000 
	C407.000000,111.024544 407.000000,115.049088 407.000000,119.536819 
	C402.864197,119.998878 398.720154,119.837578 394.595398,120.050667 
	C391.646667,120.203003 390.402374,118.899605 390.013733,116.198265 
	C388.921173,108.603981 387.777527,101.017036 386.317566,93.219452 
	C385.981079,93.011696 386.015839,93.017181 386.015869,93.017181 
M384.499268,66.029457 
	C384.499268,66.029457 384.767029,66.030342 385.216156,66.577751 
	C386.178864,66.655663 387.862701,67.052757 387.991608,66.761589 
	C389.148560,64.147781 390.764587,61.439480 390.863434,58.708900 
	C391.206146,49.243980 391.227234,39.750011 390.864838,30.286463 
	C390.739044,27.001431 390.646271,22.547617 384.599518,23.237448 
	C384.388245,23.523535 384.176971,23.809622 383.271301,24.560936 
	C383.181580,38.006908 383.081818,51.452866 383.053955,64.898972 
	C383.053162,65.274933 383.821716,65.652473 384.499268,66.029457 
z"/>
<path fill="#000000" opacity="1.000000" stroke="none" 
	d="
M406.024414,102.955833 
	C405.348938,100.942917 404.265411,98.967697 404.075317,96.909935 
	C403.527130,90.976044 402.655609,85.243332 398.411255,80.632050 
	C401.038544,77.364380 403.664062,74.097160 406.644775,70.914970 
	C407.000000,81.354225 407.000000,91.708458 406.755066,102.543198 
	C406.510132,103.023720 406.024414,102.955833 406.024414,102.955833 
z"/>
<path fill="#000000" opacity="1.000000" stroke="none" 
	d="
M13.523338,1.000000 
	C14.165504,1.241982 14.496904,1.678110 14.473051,1.698493 
	C10.204823,5.345699 5.911281,8.963282 1.309333,12.290975 
	C1.000000,8.404064 1.000000,4.808129 1.000000,1.000000 
	C5.014047,1.000000 9.030362,1.000000 13.523338,1.000000 
z"/>
<path fill="#000000" opacity="1.000000" stroke="none" 
	d="
M1.000000,236.482956 
	C1.513988,236.026840 2.240037,235.842178 2.509779,236.112640 
	C5.901570,239.513184 9.227427,242.979492 12.285080,246.714478 
	C8.412791,247.000000 4.825583,247.000000 1.000000,247.000000 
	C1.000000,243.657455 1.000000,240.311676 1.000000,236.482956 
z"/>
<path fill="#005575" opacity="1.000000" stroke="none" 
	d="
M406.015289,103.326279 
	C406.024414,102.955833 406.510132,103.023720 406.755066,103.011856 
	C407.000000,104.066673 407.000000,105.133339 407.000000,106.600006 
	C406.668732,105.898903 406.337463,104.797813 406.015289,103.326279 
z"/>
<path fill="#1D428B" opacity="1.000000" stroke="none" 
	d="
M269.995605,21.004253 
	C269.995605,54.111389 269.995605,86.719131 269.995605,119.661575 
	C264.643890,119.661575 259.728668,119.661575 254.381165,119.661575 
	C254.381165,99.484833 254.381165,79.251968 254.381165,59.814907 
	C252.630783,75.098419 250.785721,91.208618 248.951401,107.225014 
	C240.136429,109.343079 239.582626,108.571243 238.890961,99.960052 
	C238.036407,89.320984 236.325500,78.752846 235.137604,68.136940 
	C234.829285,65.381546 235.091217,62.562340 234.026733,59.773167 
	C234.026733,79.630241 234.026733,99.487320 234.026733,119.667801 
	C228.964615,119.667801 224.377945,119.667801 219.431534,119.667801 
	C219.431534,82.116135 219.431534,44.484444 219.431534,7.316239 
	C224.769852,6.868118 229.655075,6.583630 234.507187,6.016056 
	C239.545273,5.426728 240.650391,6.564603 241.047684,11.950956 
	C242.023788,25.184542 243.246078,38.399967 245.387131,51.690048 
	C245.921417,47.963249 246.577606,44.249123 246.966614,40.507221 
	C248.039810,30.183653 248.885071,19.834173 250.152222,9.535760 
	C250.312759,8.231086 252.382797,6.257487 253.688354,6.157104 
	C258.808838,5.763405 263.977478,5.996068 269.995636,5.996068 
	C269.995636,11.004641 269.995636,15.754750 269.995605,21.004253 
z"/>
<path fill="#1D428B" opacity="1.000000" stroke="none" 
	d="
M293.356293,86.165253 
	C292.892975,77.090256 292.429657,68.015259 291.966339,58.940262 
	C291.695007,58.942402 291.423645,58.944538 291.152283,58.946678 
	C291.152283,79.031929 291.152283,99.117172 291.152283,119.930946 
	C286.429810,119.930946 282.176605,119.930946 277.463196,119.387367 
	C277.002014,83.827820 277.014313,48.811836 276.963898,13.795943 
	C276.961151,11.884409 276.435486,9.973626 276.153259,8.062491 
	C276.679535,7.548009 277.181732,6.616286 277.735809,6.584339 
	C282.647736,6.301138 287.579590,6.322762 292.483734,5.959710 
	C296.285278,5.678284 297.849731,7.116004 298.057861,10.955959 
	C298.540405,19.859999 299.207520,28.760128 300.102692,37.631275 
	C300.317169,39.756790 301.715271,41.762859 303.507721,43.748486 
	C304.790436,31.771452 306.073151,19.794422 307.403564,7.372037 
	C313.605164,7.011987 319.956665,6.643233 326.660461,6.254027 
	C326.660461,43.931725 326.660461,81.528320 326.660461,119.561966 
	C321.728973,119.561966 316.696381,119.561966 311.492615,119.561966 
	C311.492615,99.305420 311.492615,79.118103 311.492615,59.098911 
	C309.809174,75.126518 308.105804,91.343506 306.428833,107.309608 
	C296.914337,108.914879 296.371277,108.375252 295.955231,99.616623 
	C295.760437,95.515724 295.075043,91.438118 294.203705,86.956207 
	C293.688232,86.386719 293.541870,86.254318 293.356293,86.165253 
z"/>
<path fill="#1D428A" opacity="1.000000" stroke="none" 
	d="
M191.929642,103.012596 
	C194.762207,105.282272 196.161469,103.534126 196.800049,100.998672 
	C197.236771,99.264732 197.034973,97.357727 197.035660,95.528069 
	C197.046173,67.531174 197.132980,39.533695 196.950760,11.537984 
	C196.921829,7.092741 198.316345,5.531079 202.669098,5.904154 
	C206.128036,6.200625 209.632690,5.963897 213.706848,5.963897 
	C213.815323,8.030970 213.986603,9.785458 213.987625,11.540045 
	C214.004257,40.203518 214.050064,68.867195 213.947876,97.530312 
	C213.931427,102.144646 214.381470,107.305611 212.514618,111.208916 
	C210.787247,114.820587 206.620270,118.683197 202.851425,119.573875 
	C196.958603,120.966515 190.452667,120.388802 184.288986,119.792679 
	C180.160629,119.393394 174.058212,113.377670 174.045319,107.198402 
	C173.976135,74.036575 174.044830,40.874462 174.078323,7.712461 
	C174.078644,7.399164 174.247620,7.086038 174.454132,6.369141 
	C179.371292,6.369141 184.407455,6.369141 189.998322,6.369141 
	C189.998322,8.480163 189.994308,10.431148 189.998901,12.382112 
	C190.069656,42.372147 190.141525,72.362175 190.794189,102.660103 
	C191.560028,102.982864 191.744843,102.997726 191.929642,103.012596 
z"/>
<path fill="#1D428B" opacity="1.000000" stroke="none" 
	d="
M265.935333,198.939743 
	C264.781677,198.431473 263.628021,197.923218 262.205017,197.296295 
	C262.205017,192.620712 262.205017,187.683701 262.205017,182.371674 
	C268.708252,182.371674 275.063660,182.371674 281.712280,182.371674 
	C281.712280,202.074783 281.712280,221.616440 281.712280,242.345993 
	C278.146027,241.768173 274.305054,242.006790 271.443848,240.447556 
	C268.393677,238.785355 266.460327,239.612076 264.450897,241.258423 
	C259.747986,245.111618 255.177063,245.195938 250.582184,241.218140 
	C250.208511,240.894623 249.881927,240.403244 249.450119,240.278564 
	C246.469055,239.417877 243.454147,238.731110 244.427505,234.380203 
	C244.548828,233.837906 243.252350,232.978439 242.451096,231.781830 
	C242.271011,229.886978 242.252640,228.476212 242.234283,227.065460 
	C242.158432,200.247726 241.920532,173.428772 242.122147,146.613129 
	C242.171768,140.014679 242.966339,133.353439 250.413986,129.639389 
	C251.752747,128.971756 253.389954,128.027252 254.860718,127.696114 
	C264.414093,125.545181 273.199371,126.766754 279.559082,135.055984 
	C281.017426,136.956772 281.822601,139.818451 281.874115,142.260147 
	C282.112549,153.568146 281.979492,164.884003 281.979492,176.601013 
	C276.672943,176.601013 271.638275,176.601013 266.626221,176.601013 
	C263.887573,165.925659 269.401245,154.126419 263.158386,144.096176 
	C262.251587,144.041565 261.344757,143.986969 260.437927,143.932358 
	C259.624573,146.826385 258.132751,149.714172 258.106079,152.615417 
	C257.906982,174.272324 257.990509,195.931915 258.012451,217.590637 
	C258.014130,219.241928 258.223114,220.893005 258.680237,222.769852 
	C259.024719,222.995514 258.980927,222.994324 258.980927,222.994324 
	C259.517548,227.187454 261.886719,227.892685 265.244690,225.881180 
	C265.085388,225.211517 265.103394,225.039124 265.444153,224.613037 
	C265.825317,216.263229 265.883698,208.167145 265.950928,199.788162 
	C265.951599,199.316757 265.943451,199.128250 265.935333,198.939743 
z"/>
<path fill="#1D428B" opacity="1.000000" stroke="none" 
	d="
M310.106140,224.940903 
	C310.404938,223.220200 310.960876,221.500015 310.964203,219.778748 
	C311.018555,191.623779 311.003082,163.468689 311.003326,135.313614 
	C311.003357,133.491898 311.003326,131.670181 311.003326,129.423401 
	C316.286377,129.423401 321.320312,129.423401 326.742523,129.423401 
	C326.828705,131.064224 326.986450,132.676697 326.987274,134.289230 
	C327.002777,164.610077 327.087494,194.931488 326.893066,225.251083 
	C326.867859,229.187561 325.727570,233.236862 324.400146,236.984695 
	C323.885345,238.438095 321.463013,239.273636 319.833069,240.264694 
	C310.857086,245.722488 294.823975,243.451981 289.643402,235.103409 
	C287.439331,231.551529 287.141113,226.408295 287.112701,221.980957 
	C286.918243,191.661621 287.023834,161.340363 287.050354,131.019730 
	C287.050781,130.552826 287.274689,130.086136 287.471100,129.319595 
	C292.719543,129.319595 297.970032,129.319595 304.019958,129.319595 
	C304.019958,131.051544 304.019989,132.802490 304.019958,134.553436 
	C304.019958,162.875107 303.981354,191.196915 304.089600,219.518173 
	C304.098724,221.909103 305.091492,224.296280 305.795044,227.432953 
	C307.041656,226.784409 308.138428,226.213806 309.432800,225.315079 
	C309.630402,224.986954 310.106171,224.940903 310.106140,224.940903 
z"/>
<path fill="#1D428B" opacity="1.000000" stroke="none" 
	d="
M213.159225,227.995560 
	C213.105698,231.155746 212.863876,234.326996 213.048492,237.473206 
	C213.257751,241.039307 211.714462,242.202759 208.327499,242.041412 
	C204.384659,241.853577 200.425995,241.997589 195.913681,241.997589 
	C199.633942,204.099152 203.293198,166.822189 206.976913,129.295868 
	C214.693283,129.295868 221.947723,129.295868 229.573257,129.295868 
	C233.117599,166.587494 236.662964,203.889755 240.248978,241.619812 
	C234.320938,241.619812 228.949997,241.619812 223.484055,241.619812 
	C222.980484,236.924728 222.026459,232.357697 222.125381,227.813583 
	C222.239029,222.592606 219.936523,221.381256 214.902374,222.804901 
	C213.966080,224.872955 213.562653,226.434250 213.159225,227.995560 
M216.001297,182.404037 
	C215.567337,190.123611 215.133392,197.843185 214.687683,205.771805 
	C219.479004,206.227661 221.572891,204.839035 220.985474,200.587387 
	C220.693359,198.473221 220.128983,196.377579 220.035736,194.258270 
	C219.620148,184.812256 219.428589,175.355835 218.960602,165.912872 
	C218.642776,159.499756 218.000931,153.102722 217.411163,145.502319 
	C216.910568,158.271439 216.456528,169.853165 216.001297,182.404037 
z"/>
<path fill="#1D428A" opacity="1.000000" stroke="none" 
	d="
M150.803299,99.892593 
	C150.871597,95.732399 151.254349,91.543259 150.875031,87.424286 
	C150.686569,85.377914 149.375000,83.258163 148.099274,81.517761 
	C140.518814,71.176056 134.129532,60.394379 130.788315,47.740421 
	C128.061615,37.413853 127.440872,27.026476 130.706467,17.303150 
	C133.962585,7.608002 138.787109,5.024827 150.231445,5.890771 
	C154.460114,6.210736 158.903976,7.440805 162.650299,9.401224 
	C167.027191,11.691613 168.545609,15.991531 168.131363,21.214132 
	C167.809387,25.273754 168.790985,29.421669 168.963684,33.539967 
	C169.129318,37.489731 168.999451,41.451885 168.999451,45.695107 
	C163.565048,45.695107 158.650360,45.695107 153.705688,45.695107 
	C150.905212,38.104023 156.447937,28.993731 148.282837,20.864868 
	C146.964798,24.156248 145.414841,26.540056 145.098679,29.077593 
	C143.833786,39.229519 149.751358,46.879086 154.391266,55.074680 
	C158.569946,62.455627 163.922256,69.051651 166.337021,77.642891 
	C169.783539,89.904877 169.712891,101.625885 165.363159,113.427834 
	C164.925644,114.614975 163.892456,115.822540 162.809143,116.492737 
	C155.818512,120.817467 148.267578,121.686920 140.259857,120.060844 
	C135.459885,119.086136 129.214447,112.783966 129.070938,107.681213 
	C128.837509,99.380165 129.007980,91.067772 129.007980,82.378906 
	C134.373672,82.378906 139.405869,82.378906 145.236282,82.378906 
	C145.236282,89.145020 145.236282,95.752472 145.627747,102.928864 
	C147.639984,103.663605 149.260773,103.829422 150.881546,103.995232 
	C150.855469,102.627686 150.829376,101.260139 150.803299,99.892593 
z"/>
<path fill="#1D428A" opacity="1.000000" stroke="none" 
	d="
M180.098984,176.071579 
	C183.776566,176.545624 187.454163,177.019669 191.581207,177.551636 
	C191.581207,181.604248 191.581207,185.968781 191.581207,190.816452 
	C187.980225,190.816452 184.397705,190.816452 180.247040,190.816452 
	C180.247040,202.321686 180.247040,213.361679 180.605164,224.909210 
	C180.962875,225.588181 180.962448,225.759583 180.962036,225.930969 
	C183.035400,226.286179 185.097061,226.772125 187.185501,226.958725 
	C189.158188,227.134979 191.159012,226.996552 193.574707,226.996552 
	C193.574707,231.932327 193.574707,236.633789 193.574707,241.670212 
	C183.648895,241.670212 173.742630,241.670212 163.423279,241.670212 
	C163.423279,204.382980 163.423279,167.053543 163.423279,129.360428 
	C173.312988,129.360428 183.217422,129.360428 193.563843,129.360428 
	C193.563843,133.918259 193.563843,138.618118 193.563843,143.807632 
	C189.326859,143.807632 185.073044,143.807632 180.023514,143.807632 
	C180.023514,154.172592 180.023514,164.077194 180.039337,174.735199 
	C180.069794,175.682922 180.084396,175.877258 180.098984,176.071579 
z"/>
<path fill="#1D428B" opacity="1.000000" stroke="none" 
	d="
M349.055176,54.103714 
	C352.740540,54.560448 356.425873,55.017181 360.568329,55.530563 
	C360.568329,59.574699 360.568329,63.929554 360.568329,68.596519 
	C356.930725,68.919975 353.249756,69.247292 349.771790,70.096527 
	C349.968628,70.785454 349.962433,70.952454 349.610565,71.350227 
	C349.177338,79.666656 349.023651,87.752502 349.048889,95.837799 
	C349.055145,97.853310 349.638611,99.867027 349.965942,102.131317 
	C349.975067,102.381073 349.984100,102.880821 349.984100,102.880821 
	C351.874786,103.257584 353.750977,103.798210 355.660065,103.967506 
	C357.800018,104.157295 359.969818,104.011116 362.559265,104.011116 
	C362.559265,109.269981 362.559265,114.301994 362.559265,119.671684 
	C352.965759,119.671684 343.390106,119.671684 333.407227,119.671684 
	C333.407227,81.895882 333.407227,44.100597 333.407227,6.515465 
	C343.244080,6.515465 352.773956,6.515465 362.649139,6.515465 
	C362.649139,11.331929 362.649139,16.381340 362.649139,22.215059 
	C358.182861,22.215059 353.909729,22.215059 349.351624,22.860310 
	C349.071625,23.731716 349.076569,23.957870 349.051147,24.637974 
	C349.030762,34.356571 349.040833,43.621220 349.044434,53.190361 
	C349.043701,53.697803 349.049438,53.900761 349.055176,54.103714 
z"/>
<path fill="#1D438B" opacity="1.000000" stroke="none" 
	d="
M349.048859,176.044708 
	C352.843140,176.541245 356.637390,177.037781 360.715302,177.571426 
	C360.715302,181.754715 360.715302,185.984360 360.715302,190.713501 
	C356.981476,190.899643 353.258667,191.085236 349.278320,191.888672 
	C349.026123,192.693451 349.031433,192.880371 349.023376,193.530518 
	C349.007294,202.435394 348.948822,210.877731 349.045288,219.318268 
	C349.066528,221.174179 349.638184,223.023788 349.966034,225.128174 
	C349.978668,225.548050 349.981659,225.716049 349.984650,225.884064 
	C351.879272,226.255722 353.759766,226.788849 355.672241,226.955994 
	C357.814087,227.143188 359.984924,226.999008 362.567261,226.999008 
	C362.567261,231.934784 362.567261,236.640732 362.567261,241.675049 
	C352.956482,241.675049 343.376190,241.675049 333.398376,241.675049 
	C333.398376,204.317047 333.398376,166.958969 333.398376,129.298965 
	C343.095032,129.298965 352.673920,129.298965 362.624817,129.298965 
	C362.624817,133.945267 362.624817,138.526901 362.624817,144.242249 
	C358.383453,144.242249 353.984009,144.242249 349.313293,144.874176 
	C349.046936,145.711472 349.051819,145.916855 349.035583,146.580887 
	C349.024384,156.338806 349.034363,165.638062 349.036499,175.214203 
	C349.035431,175.675629 349.042145,175.860168 349.048859,176.044708 
z"/>
<path fill="#1D428B" opacity="1.000000" stroke="none" 
	d="
M149.031296,225.857941 
	C150.904114,226.237869 152.762161,226.758789 154.654022,226.957138 
	C156.462769,227.146774 158.306686,227.000900 160.566040,227.006485 
	C160.996918,227.010498 160.993881,226.944580 160.993881,226.944580 
	C160.993881,231.741104 160.993881,236.537628 160.993881,241.662689 
	C151.320450,241.662689 142.076004,241.662689 132.412811,241.662689 
	C132.412811,204.370529 132.412811,167.027283 132.412811,129.340881 
	C137.332962,129.340881 142.247116,129.340881 148.001526,129.340881 
	C148.001526,131.178833 148.001526,133.091156 148.001526,135.003464 
	C148.001511,162.977386 147.996902,190.951294 148.012024,218.925217 
	C148.013000,220.748138 148.165268,222.570999 148.615967,224.881958 
	C148.984787,225.370010 149.031296,225.857941 149.031296,225.857941 
z"/>
<path fill="#FFFFFF" opacity="1.000000" stroke="none" 
	d="
M111.000000,119.000000 
	C111.000000,154.783936 111.000000,190.067871 111.000000,225.351807 
	C110.773102,225.351685 110.546204,225.351562 110.319305,225.351440 
	C110.319305,157.784332 110.319305,90.217224 110.319305,22.650114 
	C110.546204,22.648531 110.773102,22.646948 111.000000,22.645365 
	C111.000000,54.596909 111.000000,86.548454 111.000000,119.000000 
z"/>
<path fill="#003F7F" opacity="1.000000" stroke="none" 
	d="
M364.070648,8.611857 
	C364.691376,8.155103 365.261444,8.129608 365.831543,8.104114 
	C365.887665,9.430811 365.992493,10.757494 365.992828,12.084206 
	C366.001892,46.062866 366.004059,80.041527 365.986725,114.020180 
	C365.985962,115.551918 365.791443,117.083549 365.687195,118.615234 
	C365.131470,118.588676 364.575745,118.562119 364.020020,118.535553 
	C364.020020,82.038078 364.020020,45.540596 364.070648,8.611857 
z"/>
<path fill="#003F7F" opacity="1.000000" stroke="none" 
	d="
M332.000275,145.004669 
	C332.000275,177.412369 332.000275,209.321198 332.000275,241.230026 
	C331.746338,241.229202 331.492371,241.228394 331.238434,241.227570 
	C331.238434,204.159836 331.238434,167.092087 331.238434,130.024338 
	C331.492371,130.016296 331.746338,130.008255 332.000275,130.000198 
	C332.000275,134.835403 332.000275,139.670609 332.000275,145.004669 
z"/>
<path fill="#0000FF" opacity="1.000000" stroke="none" 
	d="
M274.000000,78.000000 
	C274.000000,54.212166 274.000000,30.924332 274.000000,7.636497 
	C274.238495,7.636923 274.477020,7.637350 274.715515,7.637776 
	C274.715515,44.474174 274.715515,81.310577 274.715515,118.146973 
	C274.477020,118.151306 274.238495,118.155640 274.000000,118.159966 
	C274.000000,104.939980 274.000000,91.719986 274.000000,78.000000 
z"/>
<path fill="#0000FF" opacity="1.000000" stroke="none" 
	d="
M217.000000,65.000000 
	C217.000000,45.543545 217.000000,26.587086 217.000000,7.630629 
	C217.239029,7.631290 217.478073,7.631951 217.717102,7.632611 
	C217.717102,44.472462 217.717102,81.312309 217.717102,118.152161 
	C217.478073,118.155472 217.239029,118.158775 217.000000,118.162079 
	C217.000000,100.608055 217.000000,83.054024 217.000000,65.000000 
z"/>
<path fill="#153F94" opacity="1.000000" stroke="none" 
	d="
M276.093994,8.522479 
	C276.435486,9.973626 276.961151,11.884409 276.963898,13.795943 
	C277.014313,48.811836 277.002014,83.827820 277.007233,119.290390 
	C276.674011,118.379257 276.043610,117.021866 276.041992,115.663734 
	C275.999878,80.103363 276.022919,44.542908 276.093994,8.522479 
z"/>
<path fill="#003F7F" opacity="1.000000" stroke="none" 
	d="
M332.000000,49.000000 
	C332.000000,72.414261 332.000000,95.328522 332.000000,118.242790 
	C331.752502,118.241730 331.504974,118.240677 331.257477,118.239624 
	C331.257477,81.413582 331.257477,44.587547 331.257477,7.761510 
	C331.504974,7.759304 331.752502,7.757099 332.000000,7.754893 
	C332.000000,21.336596 332.000000,34.918297 332.000000,49.000000 
z"/>
<path fill="#003F7F" opacity="1.000000" stroke="none" 
	d="
M328.000000,57.000000 
	C328.000000,40.247391 328.000000,23.994781 328.000000,7.742172 
	C328.248962,7.743925 328.497925,7.745678 328.746887,7.747431 
	C328.746887,44.582798 328.746887,81.418167 328.746887,118.253532 
	C328.497925,118.254845 328.248962,118.256157 328.000000,118.257469 
	C328.000000,98.004982 328.000000,77.752487 328.000000,57.000000 
z"/>
<path fill="#003F7F" opacity="1.000000" stroke="none" 
	d="
M271.000000,48.000000 
	C271.000000,34.252155 271.000000,21.004309 271.000000,7.756462 
	C271.247314,7.758735 271.494659,7.761008 271.741974,7.763281 
	C271.741974,44.588139 271.741974,81.412994 271.741974,118.237854 
	C271.494659,118.238899 271.247314,118.239952 271.000000,118.240997 
	C271.000000,94.993996 271.000000,71.747002 271.000000,48.000000 
z"/>
<path fill="#003E82" opacity="1.000000" stroke="none" 
	d="
M241.933868,227.242416 
	C242.252640,228.476212 242.271011,229.886978 242.156174,231.604706 
	C238.465286,233.062195 240.090622,230.123795 240.078171,229.113388 
	C239.954224,219.059875 240.003891,209.004227 240.004013,198.949173 
	C240.004227,181.333145 240.004074,163.717102 240.004074,146.101074 
	C240.264923,146.086594 240.525772,146.072113 240.786606,146.057617 
	C240.858536,147.128464 240.992813,148.199280 240.993240,149.270142 
	C241.002945,173.908829 240.987579,198.547516 241.023163,223.186142 
	C241.025208,224.597504 241.420959,226.008316 241.933868,227.242416 
z"/>
<path fill="#00407F" opacity="1.000000" stroke="none" 
	d="
M329.000000,220.776688 
	C329.000000,222.882401 329.000000,224.520508 329.000000,226.158630 
	C328.773376,226.158081 328.546722,226.157532 328.320099,226.156982 
	C328.320099,194.121231 328.320099,162.085495 328.320099,130.049744 
	C328.546722,130.047958 328.773376,130.046173 329.000000,130.044388 
	C329.000000,160.132614 329.000000,190.220856 329.000000,220.776688 
z"/>
<path fill="#0000FF" opacity="1.000000" stroke="none" 
	d="
M161.029877,227.011841 
	C161.062851,194.577698 161.062851,162.142242 161.062851,129.706772 
	C161.256287,129.693085 161.449722,129.679398 161.643173,129.665710 
	C161.761932,130.505569 161.984039,131.345367 161.984528,132.185303 
	C162.002182,162.820755 162.000961,193.456223 161.989578,224.091690 
	C161.989273,224.916702 161.847977,225.741638 161.383148,226.755600 
	C160.993881,226.944580 160.996918,227.010498 161.029877,227.011841 
z"/>
<path fill="#003F7F" opacity="1.000000" stroke="none" 
	d="
M172.998886,18.042480 
	C172.998886,46.816811 172.998886,75.098480 172.998886,103.380150 
	C172.755173,103.379433 172.511459,103.378708 172.267746,103.377991 
	C172.267746,71.514687 172.267746,39.651379 172.267746,7.788070 
	C172.511459,7.784079 172.755173,7.780087 172.998886,7.776096 
	C172.998886,11.034005 172.998886,14.291915 172.998886,18.042480 
z"/>
<path fill="#0055AA" opacity="1.000000" stroke="none" 
	d="
M149.403610,225.662079 
	C149.031296,225.857941 148.984787,225.370010 148.950623,225.127319 
	C148.916473,193.153336 148.916473,161.422028 148.916473,129.690720 
	C149.193298,129.686066 149.470123,129.681396 149.746948,129.676743 
	C149.831345,130.811356 149.988937,131.945938 149.989441,133.080582 
	C150.002731,163.050629 150.001572,193.020676 149.990250,222.990723 
	C149.989929,223.815918 149.850479,224.641052 149.403610,225.662079 
z"/>
<path fill="#003F80" opacity="1.000000" stroke="none" 
	d="
M191.989868,102.545975 
	C191.744843,102.997726 191.560028,102.982864 191.098358,102.938972 
	C190.881760,72.949081 190.942200,42.988209 191.001862,13.027337 
	C191.005325,11.284836 191.002304,9.542322 192.050079,7.805071 
	C192.050079,39.229832 192.050079,70.654594 191.989868,102.545975 
z"/>
<path fill="#003F7F" opacity="1.000000" stroke="none" 
	d="
M310.066528,224.478546 
	C310.106171,224.940903 309.630402,224.986954 309.392242,225.002014 
	C309.154083,193.296066 309.154083,161.575058 309.154083,129.854034 
	C309.445038,129.853806 309.735962,129.853561 310.026917,129.853317 
	C310.026917,161.240952 310.026917,192.628571 310.066528,224.478546 
z"/>
<path fill="#007F7F" opacity="1.000000" stroke="none" 
	d="
M215.000000,20.018547 
	C215.000000,15.564185 215.000000,11.605930 215.000000,7.647675 
	C215.245865,7.650129 215.491745,7.652583 215.737610,7.655036 
	C215.737610,38.168755 215.737610,68.682480 215.737610,99.196198 
	C215.491745,99.198196 215.245865,99.200188 215.000000,99.202187 
	C215.000000,72.973007 215.000000,46.743832 215.000000,20.018547 
z"/>
<path fill="#007F7F" opacity="1.000000" stroke="none" 
	d="
M286.000000,139.086212 
	C286.000000,166.825058 286.000000,194.077271 286.000000,221.329483 
	C285.762085,221.329300 285.524170,221.329117 285.286255,221.328934 
	C285.286255,191.200470 285.286255,161.072006 285.286255,130.943527 
	C285.524170,130.927017 285.762085,130.910507 286.000000,130.893997 
	C286.000000,133.462524 286.000000,136.031067 286.000000,139.086212 
z"/>
<path fill="#00557A" opacity="1.000000" stroke="none" 
	d="
M259.080536,197.011383 
	C259.080536,181.068909 259.080536,165.126434 259.080536,149.183960 
	C259.361389,149.179153 259.642273,149.174362 259.923126,149.169571 
	C259.923126,156.567902 259.810211,163.968414 259.953003,171.363983 
	C260.115295,179.770020 260.506104,188.171616 260.209839,196.822601 
	C259.441528,197.050507 259.261047,197.030945 259.080536,197.011383 
z"/>
<path fill="#003F7F" opacity="1.000000" stroke="none" 
	d="
M283.000000,215.000000 
	C283.000000,204.245377 283.000000,193.990753 283.000000,183.736130 
	C283.249207,183.738754 283.498444,183.741364 283.747650,183.743973 
	C283.747650,202.914093 283.747650,222.084213 283.747650,241.254333 
	C283.498444,241.257538 283.249207,241.260742 283.000000,241.263947 
	C283.000000,232.675964 283.000000,224.087982 283.000000,215.000000 
z"/>
<path fill="#003E7E" opacity="1.000000" stroke="none" 
	d="
M349.056702,146.122223 
	C349.051819,145.916855 349.046936,145.711472 349.051270,145.197876 
	C353.333893,144.889648 357.607269,144.889648 361.880646,144.889648 
	C361.893097,145.206726 361.905518,145.523804 361.917969,145.840881 
	C358.531708,145.840881 355.145416,145.840881 351.003265,145.840881 
	C351.003265,154.538574 351.065125,162.734665 350.951263,170.928314 
	C350.928406,172.574570 350.237885,174.211563 349.452026,175.948761 
	C349.042145,175.860168 349.035431,175.675629 349.371338,174.964813 
	C349.808228,168.011780 350.012512,161.583893 349.948151,155.158707 
	C349.917938,152.143875 349.369995,149.134216 349.056702,146.122223 
z"/>
<path fill="#004181" opacity="1.000000" stroke="none" 
	d="
M349.081543,24.184027 
	C349.076569,23.957870 349.071625,23.731716 349.075439,23.166088 
	C349.720795,24.268610 350.877716,25.699703 350.908173,27.154406 
	C351.084167,35.550388 350.994019,43.951954 350.994019,52.743515 
	C354.324036,52.906799 357.213562,53.048489 360.103119,53.190174 
	C360.098328,53.472622 360.093506,53.755066 360.088684,54.037514 
	C356.712738,54.037514 353.336761,54.037514 349.507996,54.070614 
	C349.049438,53.900761 349.043701,53.697803 349.383423,52.951996 
	C349.821259,46.002338 350.021759,39.594456 349.958191,33.189194 
	C349.928375,30.184868 349.389648,27.185593 349.081543,24.184027 
z"/>
<path fill="#0050A3" opacity="1.000000" stroke="none" 
	d="
M293.087677,86.494980 
	C293.541870,86.254318 293.688232,86.386719 293.865234,86.695084 
	C293.935028,97.353348 293.935028,107.878990 293.935028,118.404633 
	C293.563049,118.394020 293.191040,118.383408 292.819061,118.372803 
	C292.819061,107.856773 292.819061,97.340736 293.087677,86.494980 
z"/>
<path fill="#00007F" opacity="1.000000" stroke="none" 
	d="
M180.544739,176.045746 
	C180.084396,175.877258 180.069794,175.682922 180.072479,175.196793 
	C180.393204,171.028320 180.854614,167.156036 180.961975,163.273956 
	C181.112610,157.826508 181.000000,152.371796 181.940094,146.912567 
	C181.940094,156.047623 181.940094,165.182663 181.940094,174.688919 
	C185.000824,174.886703 187.568985,175.052658 190.137131,175.218597 
	C190.135971,175.485703 190.134811,175.752808 190.133667,176.019913 
	C187.085938,176.019913 184.038223,176.019913 180.544739,176.045746 
z"/>
<path fill="#0052A4" opacity="1.000000" stroke="none" 
	d="
M234.991638,116.397186 
	C234.987045,106.755241 234.987045,97.551079 234.987045,88.346909 
	C235.384033,88.356606 235.781021,88.366295 236.178009,88.375984 
	C236.178009,98.333214 236.178009,108.290443 236.178009,118.247681 
	C235.888474,118.251152 235.598953,118.254623 235.309418,118.258095 
	C235.205032,117.783714 235.100632,117.309334 234.991638,116.397186 
z"/>
<path fill="#004685" opacity="1.000000" stroke="none" 
	d="
M150.512665,100.134308 
	C150.829376,101.260139 150.855469,102.627686 150.881546,103.995232 
	C149.260773,103.829422 147.639984,103.663605 145.960754,103.169739 
	C145.902298,96.100960 145.902298,89.360229 145.902298,82.619507 
	C146.264664,82.619080 146.627029,82.618645 146.989395,82.618217 
	C146.989395,88.527771 146.927109,94.438713 147.057953,100.345367 
	C147.077118,101.210808 148.015137,102.055901 148.528015,102.910408 
	C149.092697,102.065620 149.657364,101.220825 150.512665,100.134308 
z"/>
<path fill="#00407E" opacity="1.000000" stroke="none" 
	d="
M349.036743,193.067307 
	C349.031433,192.880371 349.026123,192.693451 349.030304,192.226135 
	C349.691742,192.881424 350.905243,193.814621 350.909393,194.753174 
	C350.954773,204.992767 350.811005,215.233200 350.351685,225.678741 
	C349.981659,225.716049 349.978668,225.548050 349.982147,224.669571 
	C349.991913,215.520996 350.051636,207.082230 349.954742,198.645264 
	C349.933319,196.782684 349.357330,194.926453 349.036743,193.067307 
z"/>
<path fill="#003E81" opacity="1.000000" stroke="none" 
	d="
M350.351227,102.675797 
	C349.984100,102.880821 349.975067,102.381073 349.983459,101.672333 
	C349.979980,91.015541 349.968109,81.067497 349.956268,71.119446 
	C349.962433,70.952454 349.968628,70.785454 349.979309,70.368179 
	C350.310883,70.627014 350.924255,71.136833 350.922974,71.645096 
	C350.897034,81.920425 350.800629,92.195580 350.351227,102.675797 
z"/>
<path fill="#000080" opacity="1.000000" stroke="none" 
	d="
M181.337891,225.729202 
	C180.962448,225.759583 180.962875,225.588181 180.936310,225.161133 
	C180.909332,214.553848 180.909332,204.202194 180.909332,193.850540 
	C181.177475,193.852448 181.445602,193.854355 181.713745,193.856262 
	C181.713745,204.413330 181.713745,214.970383 181.337891,225.729202 
z"/>
<path fill="#004080" opacity="1.000000" stroke="none" 
	d="
M385.975464,92.994591 
	C385.505829,101.363510 385.041748,109.749542 384.577698,118.135567 
	C384.439789,118.138924 384.301910,118.142281 384.164032,118.145638 
	C384.164032,110.134384 384.153717,102.123070 384.209290,94.112198 
	C384.211151,93.846275 384.881287,93.584984 385.627869,93.169357 
	C386.015839,93.017181 385.981079,93.011696 385.975464,92.994591 
z"/>
<path fill="#007F7F" opacity="1.000000" stroke="none" 
	d="
M265.567261,198.962509 
	C265.943451,199.128250 265.951599,199.316757 265.601868,200.022125 
	C265.203094,208.648224 265.162231,216.757477 265.121368,224.866745 
	C265.103394,225.039124 265.085388,225.211517 265.042511,225.642456 
	C264.678406,219.947845 264.338074,213.994720 264.000488,208.041443 
	C263.835938,205.139328 263.676483,202.236908 263.501129,199.090729 
	C263.620148,199.083344 264.409668,199.034302 265.567261,198.962509 
z"/>
<path fill="#00437F" opacity="1.000000" stroke="none" 
	d="
M357.703613,243.004608 
	C359.466644,243.004608 360.770081,243.004608 362.073517,243.004608 
	C362.074493,243.220490 362.075500,243.436371 362.076477,243.652252 
	C352.612671,243.652252 343.148865,243.652252 333.685059,243.652252 
	C333.680084,243.436371 333.675079,243.220474 333.670105,243.004593 
	C341.528076,243.004593 349.386047,243.004593 357.703613,243.004608 
z"/>
<path fill="#004082" opacity="1.000000" stroke="none" 
	d="
M283.007477,167.910049 
	C283.007477,160.850403 283.007477,154.276505 283.007477,147.702591 
	C283.239685,147.703781 283.471924,147.704956 283.704132,147.706131 
	C283.704132,157.208527 283.704132,166.710922 283.704132,176.213318 
	C283.471924,176.215851 283.239685,176.218399 283.007477,176.220932 
	C283.007477,173.612549 283.007477,171.004166 283.007477,167.910049 
z"/>
<path fill="#0010E8" opacity="1.000000" stroke="none" 
	d="
M308.959412,110.030647 
	C308.742798,105.156868 308.526215,100.756859 308.309631,96.356850 
	C308.756622,96.347496 309.203613,96.338150 309.650604,96.328796 
	C309.650604,103.635193 309.650604,110.941589 309.650604,118.247978 
	C309.420197,118.266777 309.189819,118.285568 308.959412,118.304359 
	C308.959412,115.704384 308.959412,113.104401 308.959412,110.030647 
z"/>
<path fill="#004080" opacity="1.000000" stroke="none" 
	d="
M178.003357,243.003845 
	C183.065582,243.003845 187.631882,243.003845 192.198196,243.003845 
	C192.194351,243.244278 192.190506,243.484726 192.186661,243.725159 
	C183.004852,243.725159 173.823059,243.725159 164.641251,243.725159 
	C164.639130,243.484726 164.637009,243.244278 164.634888,243.003845 
	C168.925735,243.003845 173.216599,243.003845 178.003357,243.003845 
z"/>
<path fill="#005558" opacity="1.000000" stroke="none" 
	d="
M335.192566,127.254478 
	C344.138733,127.067612 352.744904,127.067612 361.351044,127.067612 
	C361.348877,127.192192 361.346710,127.316765 361.344543,127.441345 
	C352.513885,127.441345 343.683258,127.441345 335.192566,127.254478 
z"/>
<path fill="#007F7F" opacity="1.000000" stroke="none" 
	d="
M264.000000,162.989410 
	C264.000000,157.898712 264.000000,153.302948 264.000000,148.707184 
	C264.239624,148.709564 264.479218,148.711929 264.718842,148.714310 
	C264.718842,157.497833 264.718842,166.281372 264.718842,175.064896 
	C264.479218,175.077927 264.239624,175.090958 264.000000,175.103989 
	C264.000000,171.230774 264.000000,167.357559 264.000000,162.989410 
z"/>
<path fill="#004081" opacity="1.000000" stroke="none" 
	d="
M138.212799,243.996033 
	C136.099457,243.996033 134.455368,243.996033 132.811295,243.996033 
	C132.813538,243.774338 132.815796,243.552628 132.818039,243.330933 
	C141.554077,243.330933 150.290131,243.330933 159.026169,243.330933 
	C159.034012,243.552628 159.041855,243.774338 159.049698,243.996033 
	C152.260483,243.996033 145.471283,243.996033 138.212799,243.996033 
z"/>
<path fill="#005757" opacity="1.000000" stroke="none" 
	d="
M169.283966,127.004700 
	C176.848450,127.004707 183.948853,127.004707 191.049255,127.004707 
	C191.048798,127.237480 191.048340,127.470253 191.047882,127.703026 
	C182.268326,127.703026 173.488785,127.703026 164.709229,127.703026 
	C164.700928,127.530930 164.692627,127.358841 164.684341,127.186745 
	C166.062851,127.126060 167.441376,127.065384 169.283966,127.004700 
z"/>
<path fill="#007F7F" opacity="1.000000" stroke="none" 
	d="
M352.912994,121.000000 
	C356.012390,121.000000 358.626984,121.000000 361.241608,121.000000 
	C361.240204,121.235222 361.238800,121.470436 361.237427,121.705658 
	C352.387726,121.705658 343.538025,121.705658 334.688324,121.705658 
	C334.685760,121.470436 334.683228,121.235222 334.680695,121.000000 
	C340.596527,121.000000 346.512390,121.000000 352.912994,121.000000 
z"/>
<path fill="#005555" opacity="1.000000" stroke="none" 
	d="
M259.050751,197.477600 
	C259.261047,197.030945 259.441528,197.050507 259.890930,197.113602 
	C259.990631,205.598251 259.821472,214.039368 259.316620,222.737396 
	C258.980927,222.994324 259.024719,222.995514 259.032196,223.016830 
	C259.033447,214.673370 259.027191,206.308578 259.050751,197.477600 
z"/>
<path fill="#000000" opacity="1.000000" stroke="none" 
	d="
M213.478058,227.940170 
	C213.562653,226.434250 213.966080,224.872955 214.658997,223.108185 
	C214.564606,224.564743 214.180740,226.224762 213.478058,227.940170 
z"/>
<path fill="#1E438B" opacity="1.000000" stroke="none" 
	d="
M49.922935,28.338253 
	C49.836365,38.282974 49.874580,38.790016 38.400490,39.654778 
	C30.719088,40.233700 25.903681,43.778149 22.909801,50.278488 
	C18.323980,60.235256 13.684895,70.191788 9.708000,80.397644 
	C5.999902,89.913704 8.176363,93.099716 18.169056,94.249161 
	C17.980516,95.164459 18.071636,96.265213 17.572714,96.907982 
	C11.945704,104.157318 11.442085,112.260124 14.291040,120.483231 
	C16.403259,126.579872 19.515036,132.331604 22.220650,138.219009 
	C22.480402,138.784225 23.031660,139.664276 23.424152,139.651932 
	C28.753958,139.484512 29.504431,144.157776 31.416370,147.347626 
	C41.317333,163.866257 54.010120,177.701553 69.673798,188.969208 
	C71.835670,190.524368 72.391029,194.408951 73.500191,197.288284 
	C74.006729,198.603256 73.656998,200.345657 74.367722,201.468964 
	C80.244247,210.757111 81.157280,220.756714 79.565430,231.387360 
	C79.111244,234.420471 80.273956,237.695694 80.716736,241.021408 
	C62.308422,241.021408 43.186859,241.301987 24.079487,240.902908 
	C14.540414,240.703674 7.069910,232.038025 6.927943,222.106827 
	C6.773168,211.279526 6.859395,200.448624 6.858600,189.619293 
	C6.854675,136.138901 6.851023,82.658493 6.860316,29.178095 
	C6.862931,14.131089 14.146417,6.906099 29.269930,6.894463 
	C38.256905,6.887548 47.243889,6.893197 56.237900,6.893197 
	C51.939182,13.376082 48.560410,19.956959 49.922935,28.338253 
M25.011618,222.764450 
	C25.388269,224.361267 25.764921,225.958084 26.128744,227.500519 
	C28.159575,227.500519 29.909964,227.500519 31.712713,227.500519 
	C31.712713,215.636581 31.712713,204.072189 31.712713,192.507797 
	C31.235550,192.256607 30.758387,192.005417 30.281223,191.754242 
	C29.477316,192.940445 28.038620,194.095886 27.979385,195.318176 
	C27.722900,200.610718 27.869503,205.922806 27.869503,211.227783 
	C27.656601,211.244797 27.443699,211.261795 27.230799,211.278809 
	C26.040691,205.000641 24.850584,198.722473 23.676483,192.528748 
	C21.281889,192.528748 19.370001,192.528748 17.383308,192.528748 
	C17.383308,204.403503 17.383308,215.963287 17.383308,228.095627 
	C19.013889,227.648026 20.214916,227.318329 22.054306,226.786514 
	C22.951704,225.190445 23.849102,223.594376 25.011618,222.764450 
M35.144779,218.443268 
	C35.144779,221.389297 35.144779,224.335327 35.144779,227.538498 
	C36.735508,227.650467 37.853294,227.781891 38.972870,227.799454 
	C46.775967,227.921875 47.873013,226.790176 48.009407,219.127335 
	C48.094547,214.343857 48.313694,209.556473 48.667912,204.785324 
	C49.499973,193.577744 45.423176,189.955826 35.144817,193.133362 
	C35.144817,201.204163 35.144817,209.332443 35.144779,218.443268 
M53.126579,200.601486 
	C51.962498,209.461548 50.798420,218.321609 49.595345,227.478455 
	C51.812035,227.478455 53.181511,227.478455 53.618401,227.478455 
	C55.035885,224.778809 56.125710,222.703186 57.215542,220.627579 
	C58.516224,222.685776 59.816906,224.743973 61.482128,227.379028 
	C61.909203,227.379028 63.397930,227.379028 65.155205,227.379028 
	C63.742287,215.459335 62.382305,203.986221 61.025154,192.537018 
	C58.451408,192.537018 56.378902,192.537018 54.269722,192.537018 
	C53.888828,195.144623 53.554272,197.434982 53.126579,200.601486 
z"/>
<path fill="#C8122F" opacity="1.000000" stroke="none" 
	d="
M100.070816,115.410713 
	C94.771980,112.244659 91.046417,108.681984 90.208298,101.578644 
	C89.274002,93.660156 85.526642,86.113861 83.649712,78.251358 
	C82.506508,73.462471 82.774399,68.354683 82.061760,63.440411 
	C81.208763,57.558144 78.161125,53.015079 73.121712,49.665569 
	C69.314095,47.134789 65.806129,44.153175 62.041973,41.278400 
	C64.137901,38.252831 65.981697,35.131664 68.267464,32.377285 
	C75.277313,23.930347 74.821609,14.722963 66.426918,7.221660 
	C73.510445,7.221660 80.284821,6.528660 86.856201,7.388000 
	C96.152649,8.603700 102.209099,16.924484 102.235367,27.214745 
	C102.297401,51.511272 102.259476,75.808060 102.256828,100.104744 
	C102.256317,104.764168 102.232262,109.423584 101.622833,114.617676 
	C100.708000,115.238464 100.389404,115.324585 100.070816,115.410713 
z"/>
<path fill="#C91230" opacity="1.000000" stroke="none" 
	d="
M102.007385,139.000702 
	C102.091133,166.129410 102.180031,193.258102 102.246078,220.386856 
	C102.250122,222.047165 102.218864,223.731323 101.955948,225.364456 
	C100.671738,233.341385 93.930481,239.880035 87.284058,239.666580 
	C91.548721,236.265884 90.841537,231.820694 89.804520,227.384537 
	C88.718903,222.740509 86.998611,218.193237 86.419640,213.497177 
	C85.863396,208.985458 86.467285,204.337234 86.454109,199.749283 
	C86.447655,197.499939 87.035622,194.630035 85.909996,193.112442 
	C81.583931,187.280045 81.665321,180.344452 79.972702,173.825806 
	C78.447113,167.950439 76.714378,161.938766 73.854759,156.645340 
	C69.776329,149.095779 69.908981,140.947662 68.978943,132.493179 
	C69.429176,132.024323 69.598862,132.014862 69.768539,132.005402 
	C75.702370,145.761627 88.853180,148.560211 99.871887,138.402588 
	C100.899399,138.663116 101.453392,138.831909 102.007385,139.000702 
z"/>
<path fill="#C91532" opacity="1.000000" stroke="none" 
	d="
M69.762527,131.610352 
	C69.598862,132.014862 69.429176,132.024323 69.004929,132.050476 
	C66.525833,121.980721 64.464989,111.853569 61.974545,101.833191 
	C61.250149,98.918556 59.281921,96.316963 57.919609,93.554245 
	C57.576385,92.858192 56.947205,91.919563 57.166306,91.387772 
	C60.103683,84.258423 60.396019,75.386421 69.162827,72.372795 
	C73.041115,84.804306 76.937950,97.295265 80.986473,110.272438 
	C72.932419,113.948532 67.447739,120.402184 69.762527,131.610352 
z"/>
<path fill="#C50222" opacity="1.000000" stroke="none" 
	d="
M102.094170,138.663330 
	C101.453392,138.831909 100.899399,138.663116 100.174774,138.251648 
	C100.451836,137.184601 100.899529,136.360214 101.901825,134.514603 
	C102.050743,136.547974 102.115845,137.436951 102.094170,138.663330 
z"/>
<path fill="#C50221" opacity="1.000000" stroke="none" 
	d="
M100.082779,115.784897 
	C100.389404,115.324585 100.708000,115.238464 101.515701,115.075851 
	C102.004799,116.108719 102.004799,117.218079 102.004799,119.287224 
	C101.064468,117.747223 100.579613,116.953156 100.082779,115.784897 
z"/>
<path fill="#000102" opacity="1.000000" stroke="none" 
	d="
M385.106873,23.045080 
	C390.646271,22.547617 390.739044,27.001431 390.864838,30.286463 
	C391.227234,39.750011 391.206146,49.243980 390.863434,58.708900 
	C390.764587,61.439480 389.148560,64.147781 387.991608,66.761589 
	C387.862701,67.052757 386.178864,66.655663 385.064819,65.837219 
	C384.977905,51.079479 385.042389,37.062279 385.106873,23.045080 
z"/>
<path fill="#003F7E" opacity="1.000000" stroke="none" 
	d="
M384.853210,23.141264 
	C385.042389,37.062279 384.977905,51.079479 384.840240,65.563507 
	C384.767029,66.030342 384.499268,66.029457 384.290802,65.562881 
	C384.043457,51.429443 384.004578,37.762577 383.965698,24.095707 
	C384.176971,23.809622 384.388245,23.523535 384.853210,23.141264 
z"/>
<path fill="#000000" opacity="1.000000" stroke="none" 
	d="
M383.618500,24.328323 
	C384.004578,37.762577 384.043457,51.429443 384.156921,65.562790 
	C383.821716,65.652473 383.053162,65.274933 383.053955,64.898972 
	C383.081818,51.452866 383.181580,38.006908 383.618500,24.328323 
z"/>
<path fill="#000000" opacity="1.000000" stroke="none" 
	d="
M265.444153,224.613037 
	C265.162231,216.757477 265.203094,208.648224 265.593018,200.304993 
	C265.883698,208.167145 265.825317,216.263229 265.444153,224.613037 
z"/>
<path fill="#000000" opacity="1.000000" stroke="none" 
	d="
M216.001892,181.919464 
	C216.456528,169.853165 216.910568,158.271439 217.411163,145.502319 
	C218.000931,153.102722 218.642776,159.499756 218.960602,165.912872 
	C219.428589,175.355835 219.620148,184.812256 220.035736,194.258270 
	C220.128983,196.377579 220.693359,198.473221 220.985474,200.587387 
	C221.572891,204.839035 219.479004,206.227661 214.687683,205.771805 
	C215.133392,197.843185 215.567337,190.123611 216.001892,181.919464 
z"/>
<path fill="#000000" opacity="1.000000" stroke="none" 
	d="
M349.610565,71.350227 
	C349.968109,81.067497 349.979980,91.015541 349.974304,101.422577 
	C349.638611,99.867027 349.055145,97.853310 349.048889,95.837799 
	C349.023651,87.752502 349.177338,79.666656 349.610565,71.350227 
z"/>
<path fill="#000000" opacity="1.000000" stroke="none" 
	d="
M349.051147,24.637974 
	C349.389648,27.185593 349.928375,30.184868 349.958191,33.189194 
	C350.021759,39.594456 349.821259,46.002338 349.389923,52.647507 
	C349.040833,43.621220 349.030762,34.356571 349.051147,24.637974 
z"/>
<path fill="#000000" opacity="1.000000" stroke="none" 
	d="
M349.023376,193.530518 
	C349.357330,194.926453 349.933319,196.782684 349.954742,198.645264 
	C350.051636,207.082230 349.991913,215.520996 349.972473,224.417694 
	C349.638184,223.023788 349.066528,221.174179 349.045288,219.318268 
	C348.948822,210.877731 349.007294,202.435394 349.023376,193.530518 
z"/>
<path fill="#000000" opacity="1.000000" stroke="none" 
	d="
M349.035553,146.580887 
	C349.369995,149.134216 349.917938,152.143875 349.948151,155.158707 
	C350.012512,161.583893 349.808228,168.011780 349.379150,174.687927 
	C349.034363,165.638062 349.024384,156.338806 349.035553,146.580887 
z"/>
<path fill="#F1F4F8" opacity="1.000000" stroke="none" 
	d="
M21.415945,226.988647 
	C20.214916,227.318329 19.013889,227.648026 17.383308,228.095627 
	C17.383308,215.963287 17.383308,204.403503 17.383308,192.528748 
	C19.370001,192.528748 21.281889,192.528748 23.676483,192.528748 
	C24.850584,198.722473 26.040691,205.000641 27.230799,211.278809 
	C27.443699,211.261795 27.656601,211.244797 27.869503,211.227783 
	C27.869503,205.922806 27.722900,200.610718 27.979385,195.318176 
	C28.038620,194.095886 29.477316,192.940445 30.281223,191.754242 
	C30.758387,192.005417 31.235550,192.256607 31.712713,192.507797 
	C31.712713,204.072189 31.712713,215.636581 31.712713,227.500519 
	C29.909964,227.500519 28.159575,227.500519 26.128744,227.500519 
	C25.764921,225.958084 25.388269,224.361267 24.897972,221.987091 
	C24.103464,217.518311 23.422602,213.826874 22.796028,209.771133 
	C22.478550,208.413239 22.106779,207.419632 21.735010,206.426041 
	C21.454962,206.532303 21.174913,206.638580 20.894865,206.744843 
	C21.025116,208.183960 21.155367,209.623077 21.262180,211.510803 
	C21.297810,216.969162 21.356878,221.978897 21.415945,226.988647 
z"/>
<path fill="#EFF1F7" opacity="1.000000" stroke="none" 
	d="
M35.144798,217.951996 
	C35.144817,209.332443 35.144817,201.204163 35.144817,193.133362 
	C45.423176,189.955826 49.499973,193.577744 48.667912,204.785324 
	C48.313694,209.556473 48.094547,214.343857 48.009407,219.127335 
	C47.873013,226.790176 46.775967,227.921875 38.972870,227.799454 
	C37.853294,227.781891 36.735508,227.650467 35.144779,227.538498 
	C35.144779,224.335327 35.144779,221.389297 35.144798,217.951996 
M43.858482,203.477478 
	C43.340675,201.080353 45.385380,197.183853 40.253380,196.869431 
	C40.253380,200.984116 40.253380,204.520035 40.253380,208.055954 
	C40.752453,208.265213 41.251526,208.474472 41.750599,208.683746 
	C42.453140,207.248993 43.155678,205.814240 43.858482,203.477478 
M39.994026,214.086884 
	C39.994026,217.028198 39.994026,219.969513 39.994026,222.910828 
	C40.561558,223.127121 41.129089,223.343399 41.696621,223.559692 
	C42.420212,222.223602 43.815670,220.839249 43.723907,219.561722 
	C43.546982,217.098526 45.638271,213.696960 41.604137,212.398193 
	C41.228275,212.277206 40.599316,212.942398 39.994026,214.086884 
z"/>
<path fill="#EFF1F7" opacity="1.000000" stroke="none" 
	d="
M53.173149,200.163422 
	C53.554272,197.434982 53.888828,195.144623 54.269722,192.537018 
	C56.378902,192.537018 58.451408,192.537018 61.025154,192.537018 
	C62.382305,203.986221 63.742287,215.459335 65.155205,227.379028 
	C63.397930,227.379028 61.909203,227.379028 61.482128,227.379028 
	C59.816906,224.743973 58.516224,222.685776 57.215538,220.627579 
	C56.125710,222.703186 55.035885,224.778809 53.618401,227.478455 
	C53.181511,227.478455 51.812035,227.478455 49.595345,227.478455 
	C50.798420,218.321609 51.962498,209.461548 53.173149,200.163422 
M56.090942,210.555923 
	C56.039253,211.383728 55.781624,212.266098 55.983215,213.026779 
	C56.300877,214.225418 56.927265,215.342224 57.422962,216.493683 
	C57.943764,215.363708 58.942333,214.215088 58.899086,213.107132 
	C58.746807,209.206100 58.236870,205.319031 57.862625,201.426682 
	C57.566109,201.416412 57.269592,201.406158 56.973072,201.395889 
	C56.696045,204.150558 56.419014,206.905228 56.090942,210.555923 
z"/>
<path fill="#193F88" opacity="1.000000" stroke="none" 
	d="
M22.741737,210.135437 
	C23.422602,213.826874 24.103464,217.518311 24.765411,221.604034 
	C23.849102,223.594376 22.951704,225.190445 21.735126,226.887573 
	C21.356878,221.978897 21.297810,216.969162 21.458683,211.418854 
	C22.032995,210.630661 22.387365,210.383041 22.741737,210.135437 
z"/>
<path fill="#5B76AA" opacity="1.000000" stroke="none" 
	d="
M22.796028,209.771133 
	C22.387365,210.383041 22.032995,210.630661 21.482121,210.970245 
	C21.155367,209.623077 21.025116,208.183960 20.894865,206.744843 
	C21.174913,206.638580 21.454962,206.532303 21.735010,206.426041 
	C22.106779,207.419632 22.478550,208.413239 22.796028,209.771133 
z"/>
<path fill="#2A4D91" opacity="1.000000" stroke="none" 
	d="
M43.858353,203.928482 
	C43.155678,205.814240 42.453140,207.248993 41.750599,208.683746 
	C41.251526,208.474472 40.752453,208.265213 40.253380,208.055954 
	C40.253380,204.520035 40.253380,200.984116 40.253380,196.869431 
	C45.385380,197.183853 43.340675,201.080353 43.858353,203.928482 
z"/>
<path fill="#2F5193" opacity="1.000000" stroke="none" 
	d="
M40.040951,213.664734 
	C40.599316,212.942398 41.228275,212.277206 41.604137,212.398193 
	C45.638271,213.696960 43.546982,217.098526 43.723907,219.561722 
	C43.815670,220.839249 42.420212,222.223602 41.696621,223.559692 
	C41.129089,223.343399 40.561558,223.127121 39.994026,222.910828 
	C39.994026,219.969513 39.994026,217.028198 40.040951,213.664734 
z"/>
<path fill="#365797" opacity="1.000000" stroke="none" 
	d="
M56.116463,210.107910 
	C56.419014,206.905228 56.696045,204.150558 56.973072,201.395889 
	C57.269592,201.406158 57.566109,201.416412 57.862625,201.426682 
	C58.236870,205.319031 58.746807,209.206100 58.899086,213.107132 
	C58.942333,214.215088 57.943764,215.363708 57.422958,216.493683 
	C56.927265,215.342224 56.300877,214.225418 55.983215,213.026779 
	C55.781624,212.266098 56.039253,211.383728 56.116463,210.107910 
z"/>
</svg>